# xmcd CD database file generated by OrangeCD 5.2
#
# Track frame offsets:
#	150
#	11650
#	24005
#	34425
#	45313
#	57383
#	70058
#	84933
#	94953
#	106185
#	125720
#	138198
#	151115
#	164035
#	175298
#	185990
#	197593
#	207178
#	217993
#	229525
#
# Disc length: 3228 seconds
#
# Revision: 0
# Processed by: cddbd v1.5.1PL0 Copyright (c) Steve Scherf et al.
# Submitted via: OrangeCD 5.2
#
DISCID=0d0c9a14
DTITLE=Various Artist - Two On One Bo Diddley and Chuck Berry
DYEAR=1994
DGENRE=Rock and Roll Male
TTITLE0=Chuck Berry - Rock 'N' Roll Music
TTITLE1=Chuck Berry - No Particular Place To Go
TTITLE2=Chuck Berry - Brown-Eyed Handsome Man
TTITLE3=Chuck Berry - Roll Over Beethoven
TTITLE4=Chuck Berry - Johnny B. Goode
TTITLE5=Chuck Berry - Carol
TTITLE6=Chuck Berry - Reelin' And Rockin'
TTITLE7=Chuck Berry - Memphis, Tennessee
TTITLE8=Chuck Berry - Back In The USA
TTITLE9=Chuck Berry - My Ding-A-Ling
TTITLE10=Bo Diddley - Bo Diddley
TTITLE11=Bo Diddley - Hush Your Mouth
TTITLE12=Bo Diddley - Pretty Thing
TTITLE13=Bo Diddley - Who Do You Love
TTITLE14=Bo Diddley - Mona
TTITLE15=Bo Diddley - Little Girl
TTITLE16=Bo Diddley - Crackin' Up
TTITLE17=Bo Diddley - Dancing Girl
TTITLE18=Bo Diddley - Diddy Wah Diddy
TTITLE19=Road Runner
EXTD=
EXTT0=
EXTT1=
EXTT2=
EXTT3=
EXTT4=
EXTT5=
EXTT6=
EXTT7=
EXTT8=
EXTT9=
EXTT10=
EXTT11=
EXTT12=
EXTT13=
EXTT14=
EXTT15=
EXTT16=
EXTT17=
EXTT18=
EXTT19=
PLAYORDER=
